# xmcd
#
# Track frame offsets:
# 150
# 24514
# 42072
# 61561
# 76923
# 101007
# 128823
# 158604
# 178738
# 196764
# 236125
# 236895
# 246484
# 261055
#
# Disc length: 3494 seconds
#
#
# Revision: 0
# Processed by: cddbd v1.5.1PL0 Copyright (c) Steve Scherf et al.
# Submitted via: FreeRIP 2.70 
#
DISCID=b00da40e
DTITLE=Hill Brothers - LIVE At The Harvest Jazz and Blues Festival
DYEAR=2003
DGENRE=Blues
TTITLE0=Juke
TTITLE1=Teni-neeni-nu
TTITLE2=I Beleive I'm In Love With You
TTITLE3=She's Tuff
TTITLE4=Drinking Beer
TTITLE5=My Little Sister's Got A Motorbike
TTITLE6=Georgia Slop
TTITLE7=Reelin' And Rockin'
TTITLE8=Something Else
TTITLE9=Whammer Jammer - Caledonia
TTITLE10=<unknown>
TTITLE11=Jerry's Breakdown
TTITLE12=Bye Bye Blues
TTITLE13=<unknown>
EXTD=Bluesfestradio.com
EXTT0=
EXTT1=
EXTT2=
EXTT3=
EXTT4=
EXTT5=
EXTT6=
EXTT7=
EXTT8=
EXTT9=
EXTT10=
EXTT11=
EXTT12=
EXTT13=
PLAYORDER=
